<mxfile host="app.diagrams.net" agent="Mozilla/5.0 (Windows NT 10.0; Win64; x64) AppleWebKit/537.36 (KHTML, like Gecko) Chrome/129.0.0.0 Safari/537.36" version="24.7.16">
  <diagram id="R2lEEEUBdFMjLlhIrx00" name="Page-1">
    <mxGraphModel dx="1430" dy="763" grid="1" gridSize="10" guides="1" tooltips="1" connect="1" arrows="1" fold="1" page="1" pageScale="1" pageWidth="850" pageHeight="1100" math="0" shadow="0" extFonts="Permanent Marker^https://fonts.googleapis.com/css?family=Permanent+Marker">
      <root>
        <mxCell id="0" />
        <mxCell id="1" parent="0" />
        <mxCell id="qyiHwhnmvaVgnSu1IiFc-1" value="Albums" style="swimlane;childLayout=stackLayout;horizontal=1;startSize=50;horizontalStack=0;rounded=1;fontSize=14;fontStyle=0;strokeWidth=2;resizeParent=0;resizeLast=1;shadow=0;dashed=0;align=center;arcSize=4;whiteSpace=wrap;html=1;" parent="1" vertex="1">
          <mxGeometry x="470" y="500" width="160" height="140" as="geometry">
            <mxRectangle x="100" y="280" width="110" height="50" as="alternateBounds" />
          </mxGeometry>
        </mxCell>
        <mxCell id="qyiHwhnmvaVgnSu1IiFc-2" value="&lt;u&gt;id&lt;/u&gt;&lt;div&gt;title&lt;/div&gt;&lt;div&gt;year&lt;/div&gt;&lt;div&gt;artist&lt;/div&gt;&lt;div&gt;producer&lt;/div&gt;" style="align=left;strokeColor=none;fillColor=none;spacingLeft=4;fontSize=12;verticalAlign=top;resizable=0;rotatable=0;part=1;html=1;" parent="qyiHwhnmvaVgnSu1IiFc-1" vertex="1">
          <mxGeometry y="50" width="160" height="90" as="geometry" />
        </mxCell>
        <mxCell id="qyiHwhnmvaVgnSu1IiFc-5" value="Users" style="swimlane;childLayout=stackLayout;horizontal=1;startSize=50;horizontalStack=0;rounded=1;fontSize=14;fontStyle=0;strokeWidth=2;resizeParent=0;resizeLast=1;shadow=0;dashed=0;align=center;arcSize=4;whiteSpace=wrap;html=1;" parent="1" vertex="1">
          <mxGeometry x="70" y="80" width="160" height="100" as="geometry" />
        </mxCell>
        <mxCell id="qyiHwhnmvaVgnSu1IiFc-6" value="&lt;u&gt;userID&lt;/u&gt;&lt;div&gt;name&lt;/div&gt;" style="align=left;strokeColor=none;fillColor=none;spacingLeft=4;fontSize=12;verticalAlign=top;resizable=0;rotatable=0;part=1;html=1;" parent="qyiHwhnmvaVgnSu1IiFc-5" vertex="1">
          <mxGeometry y="50" width="160" height="50" as="geometry" />
        </mxCell>
        <mxCell id="qyiHwhnmvaVgnSu1IiFc-15" value="Score" style="swimlane;childLayout=stackLayout;horizontal=1;startSize=50;horizontalStack=0;rounded=1;fontSize=14;fontStyle=0;strokeWidth=2;resizeParent=0;resizeLast=1;shadow=0;dashed=0;align=center;arcSize=4;whiteSpace=wrap;html=1;" parent="1" vertex="1">
          <mxGeometry x="120" y="275" width="160" height="110" as="geometry">
            <mxRectangle x="100" y="280" width="110" height="50" as="alternateBounds" />
          </mxGeometry>
        </mxCell>
        <mxCell id="qyiHwhnmvaVgnSu1IiFc-16" value="&lt;u&gt;sid&lt;/u&gt;&lt;div&gt;title&lt;/div&gt;&lt;div&gt;composer&lt;/div&gt;" style="align=left;strokeColor=none;fillColor=none;spacingLeft=4;fontSize=12;verticalAlign=top;resizable=0;rotatable=0;part=1;html=1;" parent="qyiHwhnmvaVgnSu1IiFc-15" vertex="1">
          <mxGeometry y="50" width="160" height="60" as="geometry" />
        </mxCell>
        <mxCell id="qyiHwhnmvaVgnSu1IiFc-17" value="Playlists" style="shape=ext;margin=3;double=1;whiteSpace=wrap;html=1;align=center;" parent="1" vertex="1">
          <mxGeometry x="500" y="110" width="100" height="40" as="geometry" />
        </mxCell>
        <mxCell id="qyiHwhnmvaVgnSu1IiFc-18" value="&lt;span style=&quot;border-bottom: 1px dotted&quot;&gt;playlist_name&lt;/span&gt;" style="ellipse;whiteSpace=wrap;html=1;align=center;" parent="1" vertex="1">
          <mxGeometry x="480" y="50" width="100" height="40" as="geometry" />
        </mxCell>
        <mxCell id="qyiHwhnmvaVgnSu1IiFc-19" value="trackNumber" style="ellipse;whiteSpace=wrap;html=1;align=center;" parent="1" vertex="1">
          <mxGeometry x="620" y="440" width="100" height="40" as="geometry" />
        </mxCell>
        <mxCell id="qyiHwhnmvaVgnSu1IiFc-25" value="Songs" style="whiteSpace=wrap;html=1;align=center;" parent="1" vertex="1">
          <mxGeometry x="500" y="310" width="100" height="40" as="geometry" />
        </mxCell>
        <mxCell id="qyiHwhnmvaVgnSu1IiFc-26" value="" style="endArrow=none;html=1;rounded=0;" parent="1" source="qyiHwhnmvaVgnSu1IiFc-17" target="qyiHwhnmvaVgnSu1IiFc-18" edge="1">
          <mxGeometry relative="1" as="geometry">
            <mxPoint x="363" y="160" as="sourcePoint" />
            <mxPoint x="523" y="160" as="targetPoint" />
          </mxGeometry>
        </mxCell>
        <mxCell id="qyiHwhnmvaVgnSu1IiFc-27" value="Has" style="shape=rhombus;double=1;perimeter=rhombusPerimeter;whiteSpace=wrap;html=1;align=center;" parent="1" vertex="1">
          <mxGeometry x="305" y="100" width="120" height="60" as="geometry" />
        </mxCell>
        <mxCell id="qyiHwhnmvaVgnSu1IiFc-28" value="" style="endArrow=none;html=1;rounded=0;" parent="1" source="qyiHwhnmvaVgnSu1IiFc-5" target="qyiHwhnmvaVgnSu1IiFc-27" edge="1">
          <mxGeometry relative="1" as="geometry">
            <mxPoint x="363" y="160" as="sourcePoint" />
            <mxPoint x="523" y="160" as="targetPoint" />
          </mxGeometry>
        </mxCell>
        <mxCell id="qyiHwhnmvaVgnSu1IiFc-29" value="1" style="resizable=0;html=1;whiteSpace=wrap;align=right;verticalAlign=bottom;" parent="qyiHwhnmvaVgnSu1IiFc-28" connectable="0" vertex="1">
          <mxGeometry x="1" relative="1" as="geometry" />
        </mxCell>
        <mxCell id="qyiHwhnmvaVgnSu1IiFc-30" value="" style="endArrow=none;html=1;rounded=0;" parent="1" source="qyiHwhnmvaVgnSu1IiFc-27" target="qyiHwhnmvaVgnSu1IiFc-17" edge="1">
          <mxGeometry relative="1" as="geometry">
            <mxPoint x="473" y="225" as="sourcePoint" />
            <mxPoint x="543" y="215" as="targetPoint" />
          </mxGeometry>
        </mxCell>
        <mxCell id="qyiHwhnmvaVgnSu1IiFc-31" value="N" style="resizable=0;html=1;whiteSpace=wrap;align=right;verticalAlign=bottom;" parent="qyiHwhnmvaVgnSu1IiFc-30" connectable="0" vertex="1">
          <mxGeometry x="1" relative="1" as="geometry">
            <mxPoint x="-60" as="offset" />
          </mxGeometry>
        </mxCell>
        <mxCell id="qyiHwhnmvaVgnSu1IiFc-32" value="Contains/In" style="shape=rhombus;perimeter=rhombusPerimeter;whiteSpace=wrap;html=1;align=center;" parent="1" vertex="1">
          <mxGeometry x="490" y="200" width="120" height="60" as="geometry" />
        </mxCell>
        <mxCell id="qyiHwhnmvaVgnSu1IiFc-33" value="" style="endArrow=none;html=1;rounded=0;" parent="1" source="qyiHwhnmvaVgnSu1IiFc-17" target="qyiHwhnmvaVgnSu1IiFc-32" edge="1">
          <mxGeometry relative="1" as="geometry">
            <mxPoint x="376" y="200" as="sourcePoint" />
            <mxPoint x="450" y="201" as="targetPoint" />
          </mxGeometry>
        </mxCell>
        <mxCell id="qyiHwhnmvaVgnSu1IiFc-34" value="N" style="resizable=0;html=1;whiteSpace=wrap;align=right;verticalAlign=bottom;" parent="qyiHwhnmvaVgnSu1IiFc-33" connectable="0" vertex="1">
          <mxGeometry x="1" relative="1" as="geometry" />
        </mxCell>
        <mxCell id="qyiHwhnmvaVgnSu1IiFc-35" value="" style="endArrow=none;html=1;rounded=0;" parent="1" source="qyiHwhnmvaVgnSu1IiFc-32" target="qyiHwhnmvaVgnSu1IiFc-25" edge="1">
          <mxGeometry relative="1" as="geometry">
            <mxPoint x="403" y="260" as="sourcePoint" />
            <mxPoint x="513" y="50" as="targetPoint" />
          </mxGeometry>
        </mxCell>
        <mxCell id="qyiHwhnmvaVgnSu1IiFc-36" value="N" style="resizable=0;html=1;whiteSpace=wrap;align=right;verticalAlign=bottom;" parent="qyiHwhnmvaVgnSu1IiFc-35" connectable="0" vertex="1">
          <mxGeometry x="1" relative="1" as="geometry">
            <mxPoint x="13" y="-33" as="offset" />
          </mxGeometry>
        </mxCell>
        <mxCell id="qyiHwhnmvaVgnSu1IiFc-37" value="Records" style="shape=rhombus;perimeter=rhombusPerimeter;whiteSpace=wrap;html=1;align=center;" parent="1" vertex="1">
          <mxGeometry x="330" y="300" width="120" height="60" as="geometry" />
        </mxCell>
        <mxCell id="qyiHwhnmvaVgnSu1IiFc-40" value="" style="endArrow=none;html=1;rounded=0;" parent="1" source="qyiHwhnmvaVgnSu1IiFc-15" target="qyiHwhnmvaVgnSu1IiFc-37" edge="1">
          <mxGeometry relative="1" as="geometry">
            <mxPoint x="360" y="430" as="sourcePoint" />
            <mxPoint x="410" y="470" as="targetPoint" />
          </mxGeometry>
        </mxCell>
        <mxCell id="qyiHwhnmvaVgnSu1IiFc-41" value="1" style="resizable=0;html=1;whiteSpace=wrap;align=right;verticalAlign=bottom;" parent="qyiHwhnmvaVgnSu1IiFc-40" connectable="0" vertex="1">
          <mxGeometry x="1" relative="1" as="geometry" />
        </mxCell>
        <mxCell id="qyiHwhnmvaVgnSu1IiFc-48" value="In/Contains" style="shape=rhombus;perimeter=rhombusPerimeter;whiteSpace=wrap;html=1;align=center;" parent="1" vertex="1">
          <mxGeometry x="490" y="400" width="120" height="60" as="geometry" />
        </mxCell>
        <mxCell id="qyiHwhnmvaVgnSu1IiFc-51" value="" style="endArrow=none;html=1;rounded=0;" parent="1" source="qyiHwhnmvaVgnSu1IiFc-25" target="qyiHwhnmvaVgnSu1IiFc-48" edge="1">
          <mxGeometry relative="1" as="geometry">
            <mxPoint x="360" y="430" as="sourcePoint" />
            <mxPoint x="520" y="430" as="targetPoint" />
          </mxGeometry>
        </mxCell>
        <mxCell id="qyiHwhnmvaVgnSu1IiFc-52" value="N" style="resizable=0;html=1;whiteSpace=wrap;align=right;verticalAlign=bottom;" parent="qyiHwhnmvaVgnSu1IiFc-51" connectable="0" vertex="1">
          <mxGeometry x="1" relative="1" as="geometry" />
        </mxCell>
        <mxCell id="qyiHwhnmvaVgnSu1IiFc-53" value="" style="endArrow=none;html=1;rounded=0;" parent="1" source="qyiHwhnmvaVgnSu1IiFc-1" target="qyiHwhnmvaVgnSu1IiFc-48" edge="1">
          <mxGeometry relative="1" as="geometry">
            <mxPoint x="360" y="430" as="sourcePoint" />
            <mxPoint x="520" y="430" as="targetPoint" />
          </mxGeometry>
        </mxCell>
        <mxCell id="qyiHwhnmvaVgnSu1IiFc-54" value="N" style="resizable=0;html=1;whiteSpace=wrap;align=right;verticalAlign=bottom;" parent="qyiHwhnmvaVgnSu1IiFc-53" connectable="0" vertex="1">
          <mxGeometry x="1" relative="1" as="geometry">
            <mxPoint x="13" y="14" as="offset" />
          </mxGeometry>
        </mxCell>
        <mxCell id="qyiHwhnmvaVgnSu1IiFc-55" value="title" style="ellipse;whiteSpace=wrap;html=1;align=center;" parent="1" vertex="1">
          <mxGeometry x="698" y="273" width="80" height="30" as="geometry" />
        </mxCell>
        <mxCell id="qyiHwhnmvaVgnSu1IiFc-56" value="songID" style="ellipse;whiteSpace=wrap;html=1;align=center;fontStyle=4" parent="1" vertex="1">
          <mxGeometry x="585" y="270" width="90" height="35" as="geometry" />
        </mxCell>
        <mxCell id="qyiHwhnmvaVgnSu1IiFc-57" value="" style="endArrow=none;html=1;rounded=0;" parent="1" source="qyiHwhnmvaVgnSu1IiFc-25" target="qyiHwhnmvaVgnSu1IiFc-55" edge="1">
          <mxGeometry relative="1" as="geometry">
            <mxPoint x="553" y="120" as="sourcePoint" />
            <mxPoint x="660" y="410" as="targetPoint" />
          </mxGeometry>
        </mxCell>
        <mxCell id="qyiHwhnmvaVgnSu1IiFc-58" value="" style="endArrow=none;html=1;rounded=0;" parent="1" source="qyiHwhnmvaVgnSu1IiFc-56" target="qyiHwhnmvaVgnSu1IiFc-25" edge="1">
          <mxGeometry relative="1" as="geometry">
            <mxPoint x="563" y="130" as="sourcePoint" />
            <mxPoint x="557" y="110" as="targetPoint" />
          </mxGeometry>
        </mxCell>
        <mxCell id="qyiHwhnmvaVgnSu1IiFc-59" value="artist" style="ellipse;whiteSpace=wrap;html=1;align=center;" parent="1" vertex="1">
          <mxGeometry x="650" y="310" width="80" height="30" as="geometry" />
        </mxCell>
        <mxCell id="qyiHwhnmvaVgnSu1IiFc-60" value="" style="endArrow=none;html=1;rounded=0;" parent="1" source="qyiHwhnmvaVgnSu1IiFc-25" target="qyiHwhnmvaVgnSu1IiFc-59" edge="1">
          <mxGeometry relative="1" as="geometry">
            <mxPoint x="594" y="390" as="sourcePoint" />
            <mxPoint x="656" y="450" as="targetPoint" />
          </mxGeometry>
        </mxCell>
        <mxCell id="qyiHwhnmvaVgnSu1IiFc-61" value="" style="endArrow=none;html=1;rounded=0;" parent="1" source="qyiHwhnmvaVgnSu1IiFc-48" target="qyiHwhnmvaVgnSu1IiFc-19" edge="1">
          <mxGeometry relative="1" as="geometry">
            <mxPoint x="610" y="339" as="sourcePoint" />
            <mxPoint x="663" y="338" as="targetPoint" />
          </mxGeometry>
        </mxCell>
        <mxCell id="qyiHwhnmvaVgnSu1IiFc-62" value="recordingFormat" style="ellipse;whiteSpace=wrap;html=1;align=center;" parent="1" vertex="1">
          <mxGeometry x="616" y="346" width="114" height="40" as="geometry" />
        </mxCell>
        <mxCell id="qyiHwhnmvaVgnSu1IiFc-63" value="" style="endArrow=none;html=1;rounded=0;" parent="1" source="qyiHwhnmvaVgnSu1IiFc-25" target="qyiHwhnmvaVgnSu1IiFc-62" edge="1">
          <mxGeometry relative="1" as="geometry">
            <mxPoint x="610" y="338" as="sourcePoint" />
            <mxPoint x="660" y="336" as="targetPoint" />
          </mxGeometry>
        </mxCell>
        <mxCell id="RhegzTsrW30W0kHK3Klj-1" value="recordNumber" style="ellipse;whiteSpace=wrap;html=1;align=center;" vertex="1" parent="1">
          <mxGeometry x="315" y="386" width="100" height="40" as="geometry" />
        </mxCell>
        <mxCell id="RhegzTsrW30W0kHK3Klj-2" value="" style="endArrow=none;html=1;rounded=0;" edge="1" parent="1" target="RhegzTsrW30W0kHK3Klj-1" source="qyiHwhnmvaVgnSu1IiFc-37">
          <mxGeometry relative="1" as="geometry">
            <mxPoint x="325" y="450" as="sourcePoint" />
            <mxPoint x="398" y="348" as="targetPoint" />
          </mxGeometry>
        </mxCell>
        <mxCell id="RhegzTsrW30W0kHK3Klj-3" value="" style="shape=link;html=1;rounded=0;" edge="1" parent="1" target="qyiHwhnmvaVgnSu1IiFc-37">
          <mxGeometry relative="1" as="geometry">
            <mxPoint x="500" y="330" as="sourcePoint" />
            <mxPoint x="570" y="350" as="targetPoint" />
          </mxGeometry>
        </mxCell>
        <mxCell id="RhegzTsrW30W0kHK3Klj-4" value="N" style="resizable=0;html=1;whiteSpace=wrap;align=right;verticalAlign=bottom;" connectable="0" vertex="1" parent="RhegzTsrW30W0kHK3Klj-3">
          <mxGeometry x="1" relative="1" as="geometry">
            <mxPoint x="6" as="offset" />
          </mxGeometry>
        </mxCell>
      </root>
    </mxGraphModel>
  </diagram>
</mxfile>
